<svg data-v-423bf9ae="" xmlns="http://www.w3.org/2000/svg" viewBox="0 0 293.44221194932345 60" class="font"><!----><!----><defs data-v-423bf9ae=""><linearGradient data-v-423bf9ae="" gradientTransform="rotate(25)" id="640e65cc-3406-419b-9904-399facefe454" x1="0%" y1="0%" x2="100%" y2="0%"><stop data-v-423bf9ae="" offset="0%" style="stop-color: rgb(0, 118, 221); stop-opacity: 1;"></stop><stop data-v-423bf9ae="" offset="100%" style="stop-color: rgb(230, 0, 233); stop-opacity: 1;"></stop></linearGradient></defs><g data-v-423bf9ae="" id="3d214499-a46d-4e8d-935c-7b70897b2b5b" fill="url(#640e65cc-3406-419b-9904-399facefe454)" transform="matrix(3.76884420304397,0,0,3.76884420304397,-1.28140949797384,-56.1934664923056)"><path d="M3.99 17.67L3.99 25.75L3.99 25.75Q3.99 26.31 4.03 26.78L4.03 26.78L4.03 26.78Q4.06 27.24 4.12 27.41L4.12 27.41L1.33 30.83L0.73 30.35L0.73 30.35Q1.53 29.36 1.81 28.65L1.81 28.65L1.81 28.65Q2.09 27.94 2.09 26.92L2.09 26.92L2.09 17.28L0.34 16.76L0.64 16.13L5.32 16.13L5.32 16.63L3.99 17.67ZM11.21 19.53L11.21 19.53Q12.17 19.53 12.91 20.01L12.91 20.01L12.91 20.01Q13.66 20.50 14.08 21.32L14.08 21.32L14.08 21.32Q14.50 22.15 14.50 23.16L14.50 23.16L14.50 23.16Q14.50 24.25 13.84 25.19L13.84 25.19L13.84 25.19Q13.17 26.14 12.17 26.71L12.17 26.71L12.17 26.71Q11.16 27.27 10.22 27.27L10.22 27.27L10.22 27.27Q9.28 27.27 8.53 26.79L8.53 26.79L8.53 26.79Q7.78 26.31 7.36 25.48L7.36 25.48L7.36 25.48Q6.93 24.65 6.93 23.65L6.93 23.65L6.93 23.65Q6.93 22.55 7.59 21.61L7.59 21.61L7.59 21.61Q8.26 20.66 9.27 20.10L9.27 20.10L9.27 20.10Q10.28 19.53 11.21 19.53L11.21 19.53ZM10.40 20.80L10.40 20.80Q8.89 20.80 8.89 22.97L8.89 22.97L8.89 22.97Q8.89 24.28 9.44 25.14L9.44 25.14L9.44 25.14Q10.00 26.01 11.03 26.01L11.03 26.01L11.03 26.01Q11.77 26.01 12.15 25.45L12.15 25.45L12.15 25.45Q12.53 24.89 12.53 23.81L12.53 23.81L12.53 23.81Q12.53 22.53 11.98 21.66L11.98 21.66L11.98 21.66Q11.42 20.80 10.40 20.80L10.40 20.80ZM21.73 19.53L21.73 19.53Q22.50 19.53 23.13 20.01L23.13 20.01L23.13 20.01Q23.76 20.50 24.11 21.33L24.11 21.33L24.11 21.33Q24.46 22.16 24.46 23.16L24.46 23.16L24.46 23.16Q24.46 24.25 23.79 25.19L23.79 25.19L23.79 25.19Q23.13 26.14 22.12 26.71L22.12 26.71L22.12 26.71Q21.11 27.27 20.17 27.27L20.17 27.27L20.17 27.27Q19.60 27.27 19.10 27.03L19.10 27.03L19.10 27.03Q18.61 26.78 18.23 26.33L18.23 26.33L17.61 27.13L17.01 27.13L17.01 17.22L15.76 16.35L15.76 15.85L18.23 14.91L18.83 14.91L18.83 21.08L20.64 19.64L20.64 19.64Q21.08 19.53 21.71 19.53L21.71 19.53L21.73 19.53ZM20.99 26.01L20.99 26.01Q21.74 26.01 22.12 25.46L22.12 25.46L22.12 25.46Q22.50 24.91 22.50 23.83L22.50 23.83L22.50 23.83Q22.50 22.57 22.10 21.71L22.10 21.71L22.10 21.71Q21.70 20.85 20.97 20.85L20.97 20.85L20.97 20.85Q20.45 20.85 19.97 21.04L19.97 21.04L19.97 21.04Q19.49 21.22 18.84 21.77L18.84 21.77L18.84 24.26L18.84 24.26Q18.84 25.00 19.40 25.51L19.40 25.51L19.40 25.51Q19.95 26.01 20.99 26.01L20.99 26.01ZM35.35 15.89L35.35 19.18L34.86 19.35L33.17 16.86L29.41 16.86L29.41 21.17L31.50 21.17L32.52 19.42L33.03 19.42L33.03 23.31L32.40 23.62L31.54 21.88L29.41 21.88L29.41 25.93L31.64 26.52L31.32 27.15L26.19 27.15L26.19 26.64L27.51 25.61L27.51 17.25L26.03 16.76L26.35 16.13L34.54 16.13L35.35 15.89ZM41.30 26.50L40.98 27.13L36.97 27.13L36.97 26.63L38.22 25.63L38.22 21.71L36.97 20.86L36.97 20.36L39.44 19.40L40.04 19.40L40.04 26.04L41.30 26.50ZM39.07 15.20L39.07 15.20Q39.54 15.20 39.83 15.53L39.83 15.53L39.83 15.53Q40.12 15.86 40.12 16.34L40.12 16.34L40.12 16.34Q40.12 16.67 39.91 16.98L39.91 16.98L39.91 16.98Q39.70 17.28 39.38 17.45L39.38 17.45L39.38 17.45Q39.06 17.63 38.75 17.63L38.75 17.63L38.75 17.63Q38.30 17.63 38.01 17.30L38.01 17.30L38.01 17.30Q37.72 16.98 37.72 16.49L37.72 16.49L37.72 16.49Q37.72 16.16 37.93 15.86L37.93 15.86L37.93 15.86Q38.14 15.55 38.46 15.38L38.46 15.38L38.46 15.38Q38.78 15.20 39.07 15.20L39.07 15.20ZM51.56 26.52L51.24 27.15L48.48 27.15L48.48 22.47L48.48 22.47Q48.48 21.73 48.24 21.43L48.24 21.43L48.24 21.43Q48.01 21.13 47.42 21.13L47.42 21.13L47.42 21.13Q46.98 21.13 46.55 21.28L46.55 21.28L46.55 21.28Q46.12 21.43 45.54 21.87L45.54 21.87L45.54 26.05L46.80 26.52L46.48 27.15L42.48 27.15L42.48 26.64L43.72 25.65L43.72 21.84L42.48 21.10L42.48 20.59L44.97 19.40L45.46 21.18L47.39 19.64L47.39 19.64Q47.71 19.53 48.17 19.53L48.17 19.53L48.17 19.53Q49.15 19.53 49.73 20.11L49.73 20.11L49.73 20.11Q50.30 20.69 50.30 21.69L50.30 21.69L50.30 26.04L51.56 26.52ZM61.49 26.50L61.17 27.13L58.41 27.13L58.41 26.12L57.09 27.16L57.09 27.16Q56.64 27.27 56.03 27.27L56.03 27.27L56.03 27.27Q55.10 27.27 54.37 26.79L54.37 26.79L54.37 26.79Q53.63 26.31 53.22 25.48L53.22 25.48L53.22 25.48Q52.81 24.65 52.81 23.65L52.81 23.65L52.81 23.65Q52.81 22.55 53.47 21.61L53.47 21.61L53.47 21.61Q54.14 20.66 55.15 20.10L55.15 20.10L55.15 20.10Q56.15 19.53 57.09 19.53L57.09 19.53L57.09 19.53Q57.81 19.53 58.41 19.95L58.41 19.95L58.41 17.22L57.16 16.35L57.16 15.85L59.63 14.91L60.23 14.91L60.23 26.04L61.49 26.50ZM56.78 25.94L56.78 25.94Q57.20 25.94 57.58 25.83L57.58 25.83L57.58 25.83Q57.96 25.72 58.42 25.41L58.42 25.41L58.42 22.32L58.42 22.32Q58.34 21.64 57.79 21.22L57.79 21.22L57.79 21.22Q57.23 20.80 56.28 20.80L56.28 20.80L56.28 20.80Q54.77 20.80 54.77 22.97L54.77 22.97L54.77 22.97Q54.77 24.25 55.29 25.10L55.29 25.10L55.29 25.10Q55.80 25.94 56.77 25.94L56.77 25.94L56.78 25.94ZM69.90 25.23L67.49 27.15L67.49 27.15Q66.89 27.27 66.04 27.27L66.04 27.27L66.04 27.27Q65.10 27.27 64.35 26.79L64.35 26.79L64.35 26.79Q63.60 26.31 63.17 25.48L63.17 25.48L63.17 25.48Q62.75 24.65 62.75 23.65L62.75 23.65L62.75 23.65Q62.75 22.55 63.41 21.61L63.41 21.61L63.41 21.61Q64.08 20.66 65.09 20.10L65.09 20.10L65.09 20.10Q66.09 19.53 67.03 19.53L67.03 19.53L67.03 19.53Q68.39 19.53 69.14 20.59L69.14 20.59L69.14 20.59Q69.89 21.66 69.87 23.44L69.87 23.44L64.72 23.44L64.72 23.44Q64.82 24.56 65.37 25.26L65.37 25.26L65.37 25.26Q65.91 25.97 66.85 25.97L66.85 25.97L66.85 25.97Q67.77 25.97 69.48 24.65L69.48 24.65L69.90 25.23ZM66.23 20.80L66.23 20.80Q64.79 20.80 64.72 22.79L64.72 22.79L67.87 22.79L67.87 22.79Q67.75 22.08 67.61 21.69L67.61 21.69L67.61 21.69Q67.48 21.29 67.16 21.05L67.16 21.05L67.16 21.05Q66.84 20.80 66.22 20.80L66.22 20.80L66.23 20.80ZM76.01 21.11L76.01 21.11Q75.71 21.11 75.39 21.27L75.39 21.27L75.39 21.27Q75.07 21.42 74.66 21.83L74.66 21.83L74.66 25.93L76.65 26.52L76.34 27.15L71.60 27.15L71.60 26.64L72.84 25.65L72.84 21.84L71.60 21.10L71.60 20.59L74.09 19.40L74.55 21.10L75.96 19.64L75.96 19.64Q76.29 19.53 76.72 19.53L76.72 19.53L76.72 19.53Q77.24 19.53 77.62 19.80L77.62 19.80L77.62 19.80Q78.01 20.06 78.20 20.55L78.20 20.55L77.20 21.81L76.59 21.81L76.59 21.81Q76.54 21.43 76.40 21.27L76.40 21.27L76.40 21.27Q76.26 21.11 76.01 21.11L76.01 21.11Z"></path></g><!----><!----></svg>